<?xml version="1.0" encoding="UTF-8" standalone="no"?><!-- Generator: Gravit.io --><svg xmlns="http://www.w3.org/2000/svg" xmlns:xlink="http://www.w3.org/1999/xlink" style="isolation:isolate" viewBox="0 0 960 540" width="960pt" height="540pt"><g><path d=" M 194.519 126.075 C 155.126 126.075 132.178 159.731 132.178 198.742 C 132.178 227.809 142.122 258.024 142.122 285.943 C 142.122 304.684 140.21 323.424 140.21 342.165 C 140.21 363.965 164.305 381.176 179.986 381.176 C 188.782 381.176 195.284 375.056 195.284 363.965 C 195.284 345.224 193.754 324.954 193.754 306.596 C 193.754 286.326 201.786 275.234 223.586 266.82 C 248.828 257.259 277.13 231.634 277.13 200.655 C 277.13 160.114 238.12 126.075 194.519 126.075 Z " fill="rgb(124,60,253)"/><path d=" M 237.954 350.852 L 237.954 350.852 L 237.954 350.852 Q 241.782 350.852 244.95 350.126 L 244.95 350.126 L 244.95 350.126 Q 248.118 349.4 249.57 348.344 L 249.57 348.344 L 249.57 333.692 L 236.766 334.88 L 236.766 334.88 Q 231.486 335.408 228.714 337.19 L 228.714 337.19 L 228.714 337.19 Q 225.942 338.972 225.942 342.8 L 225.942 342.8 L 225.942 342.8 Q 225.942 346.628 228.78 348.74 L 228.78 348.74 L 228.78 348.74 Q 231.618 350.852 237.954 350.852 Z  M 237.426 297.128 L 237.426 297.128 L 237.426 297.128 Q 250.362 297.128 258.084 302.672 L 258.084 302.672 L 258.084 302.672 Q 265.806 308.216 265.806 319.832 L 265.806 319.832 L 265.806 350.324 L 265.806 350.324 Q 265.806 353.492 264.222 355.34 L 264.222 355.34 L 264.222 355.34 Q 262.638 357.188 260.262 358.64 L 260.262 358.64 L 260.262 358.64 Q 256.566 360.884 250.89 362.204 L 250.89 362.204 L 250.89 362.204 Q 245.214 363.524 237.954 363.524 L 237.954 363.524 L 237.954 363.524 Q 224.754 363.524 217.164 358.442 L 217.164 358.442 L 217.164 358.442 Q 209.574 353.36 209.574 343.196 L 209.574 343.196 L 209.574 343.196 Q 209.574 334.352 215.184 329.666 L 215.184 329.666 L 215.184 329.666 Q 220.794 324.98 231.486 323.924 L 231.486 323.924 L 249.57 322.076 L 249.57 319.7 L 249.57 319.7 Q 249.57 314.684 245.94 312.308 L 245.94 312.308 L 245.94 312.308 Q 242.31 309.932 235.71 309.932 L 235.71 309.932 L 235.71 309.932 Q 230.562 309.932 225.678 311.186 L 225.678 311.186 L 225.678 311.186 Q 220.794 312.44 216.966 314.288 L 216.966 314.288 L 216.966 314.288 Q 215.514 313.232 214.524 311.45 L 214.524 311.45 L 214.524 311.45 Q 213.534 309.668 213.534 307.556 L 213.534 307.556 L 213.534 307.556 Q 213.534 304.916 214.788 303.266 L 214.788 303.266 L 214.788 303.266 Q 216.042 301.616 218.814 300.296 L 218.814 300.296 L 218.814 300.296 Q 222.642 298.712 227.526 297.92 L 227.526 297.92 L 227.526 297.92 Q 232.41 297.128 237.426 297.128 Z " fill="rgb(124,60,253)"/><path d=" M 330.882 343.856 L 330.882 343.856 L 330.882 343.856 Q 330.882 353.096 324.018 358.31 L 324.018 358.31 L 324.018 358.31 Q 317.154 363.524 303.954 363.524 L 303.954 363.524 L 303.954 363.524 Q 298.542 363.524 294.12 362.732 L 294.12 362.732 L 294.12 362.732 Q 289.698 361.94 286.464 360.422 L 286.464 360.422 L 286.464 360.422 Q 283.23 358.904 281.448 356.726 L 281.448 356.726 L 281.448 356.726 Q 279.666 354.548 279.666 351.908 L 279.666 351.908 L 279.666 351.908 Q 279.666 349.4 280.788 347.552 L 280.788 347.552 L 280.788 347.552 Q 281.91 345.704 283.758 344.516 L 283.758 344.516 L 283.758 344.516 Q 287.454 346.892 292.272 348.74 L 292.272 348.74 L 292.272 348.74 Q 297.09 350.588 303.426 350.588 L 303.426 350.588 L 303.426 350.588 Q 308.838 350.588 311.61 348.806 L 311.61 348.806 L 311.61 348.806 Q 314.382 347.024 314.382 343.856 L 314.382 343.856 L 314.382 343.856 Q 314.382 338.444 306.462 336.728 L 306.462 336.728 L 299.07 335.012 L 299.07 335.012 Q 289.302 332.768 284.616 328.28 L 284.616 328.28 L 284.616 328.28 Q 279.93 323.792 279.93 316.268 L 279.93 316.268 L 279.93 316.268 Q 279.93 307.688 286.794 302.342 L 286.794 302.342 L 286.794 302.342 Q 293.658 296.996 306.066 296.996 L 306.066 296.996 L 306.066 296.996 Q 310.818 296.996 314.844 297.722 L 314.844 297.722 L 314.844 297.722 Q 318.87 298.448 321.84 299.834 L 321.84 299.834 L 321.84 299.834 Q 324.81 301.22 326.46 303.134 L 326.46 303.134 L 326.46 303.134 Q 328.11 305.048 328.11 307.556 L 328.11 307.556 L 328.11 307.556 Q 328.11 309.932 327.054 311.714 L 327.054 311.714 L 327.054 311.714 Q 325.998 313.496 324.546 314.552 L 324.546 314.552 L 324.546 314.552 Q 323.358 313.76 321.444 312.968 L 321.444 312.968 L 321.444 312.968 Q 319.53 312.176 317.22 311.516 L 317.22 311.516 L 317.22 311.516 Q 314.91 310.856 312.336 310.394 L 312.336 310.394 L 312.336 310.394 Q 309.762 309.932 307.254 309.932 L 307.254 309.932 L 307.254 309.932 Q 302.106 309.932 299.202 311.582 L 299.202 311.582 L 299.202 311.582 Q 296.298 313.232 296.298 316.268 L 296.298 316.268 L 296.298 316.268 Q 296.298 318.512 297.948 319.964 L 297.948 319.964 L 297.948 319.964 Q 299.598 321.416 303.69 322.34 L 303.69 322.34 L 310.158 323.924 L 310.158 323.924 Q 321.114 326.432 325.998 331.25 L 325.998 331.25 L 325.998 331.25 Q 330.882 336.068 330.882 343.856 Z " fill="rgb(124,60,253)"/><path d=" M 392.923 343.856 L 392.923 343.856 L 392.923 343.856 Q 392.923 353.096 386.059 358.31 L 386.059 358.31 L 386.059 358.31 Q 379.195 363.524 365.995 363.524 L 365.995 363.524 L 365.995 363.524 Q 360.583 363.524 356.161 362.732 L 356.161 362.732 L 356.161 362.732 Q 351.739 361.94 348.505 360.422 L 348.505 360.422 L 348.505 360.422 Q 345.271 358.904 343.489 356.726 L 343.489 356.726 L 343.489 356.726 Q 341.707 354.548 341.707 351.908 L 341.707 351.908 L 341.707 351.908 Q 341.707 349.4 342.829 347.552 L 342.829 347.552 L 342.829 347.552 Q 343.951 345.704 345.799 344.516 L 345.799 344.516 L 345.799 344.516 Q 349.495 346.892 354.313 348.74 L 354.313 348.74 L 354.313 348.74 Q 359.131 350.588 365.467 350.588 L 365.467 350.588 L 365.467 350.588 Q 370.879 350.588 373.651 348.806 L 373.651 348.806 L 373.651 348.806 Q 376.423 347.024 376.423 343.856 L 376.423 343.856 L 376.423 343.856 Q 376.423 338.444 368.503 336.728 L 368.503 336.728 L 361.111 335.012 L 361.111 335.012 Q 351.343 332.768 346.657 328.28 L 346.657 328.28 L 346.657 328.28 Q 341.971 323.792 341.971 316.268 L 341.971 316.268 L 341.971 316.268 Q 341.971 307.688 348.835 302.342 L 348.835 302.342 L 348.835 302.342 Q 355.699 296.996 368.107 296.996 L 368.107 296.996 L 368.107 296.996 Q 372.859 296.996 376.885 297.722 L 376.885 297.722 L 376.885 297.722 Q 380.911 298.448 383.881 299.834 L 383.881 299.834 L 383.881 299.834 Q 386.851 301.22 388.501 303.134 L 388.501 303.134 L 388.501 303.134 Q 390.151 305.048 390.151 307.556 L 390.151 307.556 L 390.151 307.556 Q 390.151 309.932 389.095 311.714 L 389.095 311.714 L 389.095 311.714 Q 388.039 313.496 386.587 314.552 L 386.587 314.552 L 386.587 314.552 Q 385.399 313.76 383.485 312.968 L 383.485 312.968 L 383.485 312.968 Q 381.571 312.176 379.261 311.516 L 379.261 311.516 L 379.261 311.516 Q 376.951 310.856 374.377 310.394 L 374.377 310.394 L 374.377 310.394 Q 371.803 309.932 369.295 309.932 L 369.295 309.932 L 369.295 309.932 Q 364.147 309.932 361.243 311.582 L 361.243 311.582 L 361.243 311.582 Q 358.339 313.232 358.339 316.268 L 358.339 316.268 L 358.339 316.268 Q 358.339 318.512 359.989 319.964 L 359.989 319.964 L 359.989 319.964 Q 361.639 321.416 365.731 322.34 L 365.731 322.34 L 372.199 323.924 L 372.199 323.924 Q 383.155 326.432 388.039 331.25 L 388.039 331.25 L 388.039 331.25 Q 392.923 336.068 392.923 343.856 Z " fill="rgb(124,60,253)"/><path d=" M 569.882 346.567 L 569.882 346.567 L 569.882 346.567 Q 569.882 349.603 568.826 351.648 L 568.826 351.648 L 568.826 351.648 Q 567.77 353.694 564.998 355.278 L 564.998 355.278 L 564.998 355.278 Q 561.17 357.654 555.296 359.238 L 555.296 359.238 L 555.296 359.238 Q 549.422 360.822 541.899 360.822 L 541.899 360.822 L 541.899 360.822 Q 535.035 360.822 529.491 359.304 L 529.491 359.304 L 529.491 359.304 Q 523.947 357.786 519.987 354.618 L 519.987 354.618 L 519.987 354.618 Q 516.027 351.45 513.915 346.567 L 513.915 346.567 L 513.915 346.567 Q 511.803 341.683 511.803 334.951 L 511.803 334.951 L 511.803 296.54 L 511.803 296.54 Q 512.859 296.144 514.905 295.814 L 514.905 295.814 L 514.905 295.814 Q 516.951 295.484 519.459 295.484 L 519.459 295.484 L 519.459 295.484 Q 524.079 295.484 526.323 297.134 L 526.323 297.134 L 526.323 297.134 Q 528.567 298.784 528.567 303.272 L 528.567 303.272 L 528.567 334.687 L 528.567 334.687 Q 528.567 341.551 532.065 344.521 L 532.065 344.521 L 532.065 344.521 Q 535.563 347.491 542.031 347.491 L 542.031 347.491 L 542.031 347.491 Q 546.122 347.491 548.96 346.699 L 548.96 346.699 L 548.96 346.699 Q 551.798 345.907 553.25 344.983 L 553.25 344.983 L 553.25 296.54 L 553.25 296.54 Q 554.306 296.144 556.352 295.814 L 556.352 295.814 L 556.352 295.814 Q 558.398 295.484 560.774 295.484 L 560.774 295.484 L 560.774 295.484 Q 565.526 295.484 567.704 297.134 L 567.704 297.134 L 567.704 297.134 Q 569.882 298.784 569.882 303.272 L 569.882 303.272 L 569.882 346.567 L 569.882 346.567 Z  M 635.22 341.155 L 635.22 341.155 L 635.22 341.155 Q 635.22 350.395 628.356 355.608 L 628.356 355.608 L 628.356 355.608 Q 621.493 360.822 608.293 360.822 L 608.293 360.822 L 608.293 360.822 Q 602.881 360.822 598.459 360.03 L 598.459 360.03 L 598.459 360.03 Q 594.037 359.238 590.803 357.72 L 590.803 357.72 L 590.803 357.72 Q 587.569 356.202 585.787 354.024 L 585.787 354.024 L 585.787 354.024 Q 584.006 351.846 584.006 349.207 L 584.006 349.207 L 584.006 349.207 Q 584.006 346.699 585.127 344.851 L 585.127 344.851 L 585.127 344.851 Q 586.249 343.003 588.097 341.815 L 588.097 341.815 L 588.097 341.815 Q 591.793 344.191 596.611 346.039 L 596.611 346.039 L 596.611 346.039 Q 601.429 347.887 607.765 347.887 L 607.765 347.887 L 607.765 347.887 Q 613.177 347.887 615.949 346.105 L 615.949 346.105 L 615.949 346.105 Q 618.721 344.323 618.721 341.155 L 618.721 341.155 L 618.721 341.155 Q 618.721 335.743 610.801 334.027 L 610.801 334.027 L 603.409 332.311 L 603.409 332.311 Q 593.641 330.067 588.955 325.579 L 588.955 325.579 L 588.955 325.579 Q 584.27 321.091 584.27 313.567 L 584.27 313.567 L 584.27 313.567 Q 584.27 304.988 591.133 299.642 L 591.133 299.642 L 591.133 299.642 Q 597.997 294.296 610.405 294.296 L 610.405 294.296 L 610.405 294.296 Q 615.157 294.296 619.183 295.022 L 619.183 295.022 L 619.183 295.022 Q 623.209 295.748 626.179 297.134 L 626.179 297.134 L 626.179 297.134 Q 629.148 298.52 630.798 300.434 L 630.798 300.434 L 630.798 300.434 Q 632.448 302.348 632.448 304.856 L 632.448 304.856 L 632.448 304.856 Q 632.448 307.232 631.392 309.013 L 631.392 309.013 L 631.392 309.013 Q 630.336 310.795 628.884 311.851 L 628.884 311.851 L 628.884 311.851 Q 627.696 311.059 625.783 310.267 L 625.783 310.267 L 625.783 310.267 Q 623.869 309.475 621.559 308.816 L 621.559 308.816 L 621.559 308.816 Q 619.249 308.156 616.675 307.694 L 616.675 307.694 L 616.675 307.694 Q 614.101 307.232 611.593 307.232 L 611.593 307.232 L 611.593 307.232 Q 606.445 307.232 603.541 308.882 L 603.541 308.882 L 603.541 308.882 Q 600.637 310.531 600.637 313.567 L 600.637 313.567 L 600.637 313.567 Q 600.637 315.811 602.287 317.263 L 602.287 317.263 L 602.287 317.263 Q 603.937 318.715 608.029 319.639 L 608.029 319.639 L 614.497 321.223 L 614.497 321.223 Q 625.453 323.731 630.336 328.549 L 630.336 328.549 L 630.336 328.549 Q 635.22 333.367 635.22 341.155 Z  M 665.58 358.71 L 665.58 358.71 L 665.58 358.71 Q 664.392 358.974 662.412 359.37 L 662.412 359.37 L 662.412 359.37 Q 660.432 359.766 657.924 359.766 L 657.924 359.766 L 657.924 359.766 Q 653.304 359.766 651.06 358.05 L 651.06 358.05 L 651.06 358.05 Q 648.816 356.334 648.816 351.978 L 648.816 351.978 L 648.816 273.044 L 648.816 273.044 Q 649.872 272.648 651.918 272.318 L 651.918 272.318 L 651.918 272.318 Q 653.964 271.988 656.472 271.988 L 656.472 271.988 L 656.472 271.988 Q 661.092 271.988 663.336 273.704 L 663.336 273.704 L 663.336 273.704 Q 665.58 275.42 665.58 279.776 L 665.58 279.776 L 665.58 297.992 L 665.58 297.992 Q 668.484 296.54 672.245 295.484 L 672.245 295.484 L 672.245 295.484 Q 676.007 294.428 680.627 294.428 L 680.627 294.428 L 680.627 294.428 Q 692.639 294.428 699.767 300.632 L 699.767 300.632 L 699.767 300.632 Q 706.895 306.836 706.895 319.375 L 706.895 319.375 L 706.895 358.71 L 706.895 358.71 Q 705.839 358.974 703.793 359.37 L 703.793 359.37 L 703.793 359.37 Q 701.747 359.766 699.371 359.766 L 699.371 359.766 L 699.371 359.766 Q 694.619 359.766 692.375 358.05 L 692.375 358.05 L 692.375 358.05 Q 690.131 356.334 690.131 351.978 L 690.131 351.978 L 690.131 320.167 L 690.131 320.167 Q 690.131 313.567 686.699 310.597 L 686.699 310.597 L 686.699 310.597 Q 683.267 307.628 677.723 307.628 L 677.723 307.628 L 677.723 307.628 Q 674.159 307.628 671.123 308.75 L 671.123 308.75 L 671.123 308.75 Q 668.088 309.871 665.58 311.455 L 665.58 311.455 L 665.58 358.71 L 665.58 358.71 Z  M 773.949 329.803 L 737.254 335.083 L 737.254 335.083 Q 739.102 341.815 744.118 344.851 L 744.118 344.851 L 744.118 344.851 Q 749.134 347.887 756.525 347.887 L 756.525 347.887 L 756.525 347.887 Q 762.069 347.887 766.755 346.237 L 766.755 346.237 L 766.755 346.237 Q 771.441 344.587 774.345 342.739 L 774.345 342.739 L 774.345 342.739 Q 776.193 343.795 777.381 345.643 L 777.381 345.643 L 777.381 345.643 Q 778.569 347.491 778.569 349.603 L 778.569 349.603 L 778.569 349.603 Q 778.569 352.242 776.787 354.288 L 776.787 354.288 L 776.787 354.288 Q 775.005 356.334 771.903 357.786 L 771.903 357.786 L 771.903 357.786 Q 768.801 359.238 764.577 360.03 L 764.577 360.03 L 764.577 360.03 Q 760.353 360.822 755.469 360.822 L 755.469 360.822 L 755.469 360.822 Q 747.682 360.822 741.28 358.71 L 741.28 358.71 L 741.28 358.71 Q 734.878 356.598 730.324 352.308 L 730.324 352.308 L 730.324 352.308 Q 725.77 348.019 723.196 341.683 L 723.196 341.683 L 723.196 341.683 Q 720.622 335.347 720.622 326.899 L 720.622 326.899 L 720.622 326.899 Q 720.622 318.715 723.13 312.643 L 723.13 312.643 L 723.13 312.643 Q 725.638 306.572 729.928 302.48 L 729.928 302.48 L 729.928 302.48 Q 734.218 298.388 739.894 296.408 L 739.894 296.408 L 739.894 296.408 Q 745.57 294.428 751.906 294.428 L 751.906 294.428 L 751.906 294.428 Q 758.373 294.428 763.785 296.474 L 763.785 296.474 L 763.785 296.474 Q 769.197 298.52 773.025 302.15 L 773.025 302.15 L 773.025 302.15 Q 776.853 305.78 779.031 310.861 L 779.031 310.861 L 779.031 310.861 Q 781.209 315.943 781.209 321.883 L 781.209 321.883 L 781.209 321.883 Q 781.209 325.579 779.295 327.427 L 779.295 327.427 L 779.295 327.427 Q 777.381 329.275 773.949 329.803 L 773.949 329.803 L 773.949 329.803 Z  M 751.906 306.968 L 751.906 306.968 L 751.906 306.968 Q 745.438 306.968 741.082 311.257 L 741.082 311.257 L 741.082 311.257 Q 736.726 315.547 736.198 323.467 L 736.198 323.467 L 765.501 319.111 L 765.501 319.111 Q 764.973 314.227 761.673 310.597 L 761.673 310.597 L 761.673 310.597 Q 758.373 306.968 751.906 306.968 Z  M 810.908 311.455 L 810.908 358.71 L 810.908 358.71 Q 809.72 358.974 807.74 359.37 L 807.74 359.37 L 807.74 359.37 Q 805.76 359.766 803.252 359.766 L 803.252 359.766 L 803.252 359.766 Q 798.632 359.766 796.388 358.05 L 796.388 358.05 L 796.388 358.05 Q 794.145 356.334 794.145 351.978 L 794.145 351.978 L 794.145 310.135 L 794.145 310.135 Q 794.145 306.704 795.729 304.328 L 795.729 304.328 L 795.729 304.328 Q 797.312 301.952 800.348 300.104 L 800.348 300.104 L 800.348 300.104 Q 804.44 297.596 810.446 296.012 L 810.446 296.012 L 810.446 296.012 Q 816.452 294.428 823.448 294.428 L 823.448 294.428 L 823.448 294.428 Q 835.988 294.428 835.988 302.216 L 835.988 302.216 L 835.988 302.216 Q 835.988 304.064 835.394 305.714 L 835.394 305.714 L 835.394 305.714 Q 834.8 307.364 834.14 308.42 L 834.14 308.42 L 834.14 308.42 Q 831.104 307.76 826.616 307.76 L 826.616 307.76 L 826.616 307.76 Q 821.996 307.76 817.904 308.816 L 817.904 308.816 L 817.904 308.816 Q 813.812 309.871 810.908 311.455 L 810.908 311.455 L 810.908 311.455 Z " fill="rgb(255,212,43)"/><path d=" M 491.711 126.075 C 452.318 126.075 429.37 159.731 429.37 198.742 C 429.37 227.809 439.314 258.024 439.314 285.943 C 439.314 304.684 437.402 323.424 437.402 342.165 C 437.402 363.965 461.497 381.176 477.178 381.176 C 485.974 381.176 492.476 375.056 492.476 363.965 C 492.476 345.224 490.946 324.954 490.946 306.596 C 490.946 286.326 498.978 275.234 520.778 266.82 C 546.021 257.259 574.323 231.634 574.323 200.655 C 574.323 160.114 535.312 126.075 491.711 126.075 Z " fill="rgb(255,212,43)"/></g></svg>